<svg width="14" height="14" viewBox="0 0 14 14" fill="none" xmlns="http://www.w3.org/2000/svg">
  <path d="M4.74056 2.33236H13.9281C13.9281 2.33236 14.0019 2.40041 14.0019 2.40625V13.9271C14.0019 13.9271 13.9339 14.001 13.9281 14.001H4.78722C4.78722 14.001 4.66667 13.8882 4.66667 13.8804V2.40625C4.66667 2.39263 4.72306 2.35763 4.74056 2.33236ZM5.90722 3.49902C5.89167 3.5243 5.83333 3.5593 5.83333 3.57291V12.7604C5.83333 12.7604 5.90139 12.8343 5.90722 12.8343H12.7614C12.7614 12.8343 12.8353 12.7662 12.8353 12.7604V3.57291C12.8353 3.57291 12.7672 3.49902 12.7614 3.49902H5.90722Z" fill="#EEEEEE"/>
  <path d="M0.0738889 -0.000976562H9.26139C9.26139 -0.000976562 9.33528 0.067079 9.33528 0.0729123V1.67708C9.33528 1.67708 9.26722 1.75097 9.26139 1.75097H8.28917C8.10445 1.75097 8.22111 1.16763 8.09472 1.16763H1.24056C1.24056 1.16763 1.16667 1.23569 1.16667 1.24152V10.429C1.16667 10.429 1.23472 10.5029 1.24056 10.5029H4.01139C4.01139 10.5029 4.08528 10.571 4.08528 10.5768V11.5976C4.08528 11.5976 4.01722 11.6715 4.01139 11.6715H0.120556C0.120556 11.6715 0 11.5587 0 11.551V0.0729123C0 0.0593012 0.0563889 0.0243012 0.0738889 -0.000976562Z" fill="#EEEEEE"/>
</svg>
