<svg width="16" height="16" viewBox="0 0 16 16" fill="none" xmlns="http://www.w3.org/2000/svg">
    <path d="M2.53916 2.46122H13.4608C13.4608 2.46122 13.5388 2.53301 13.5388 2.53916V13.4608C13.5388 13.4608 13.467 13.5388 13.4608 13.5388H2.53916C2.53916 13.5388 2.46122 13.467 2.46122 13.4608V2.53916C2.46122 2.52481 2.5207 2.48789 2.53916 2.46122ZM3.76977 3.69183C3.75337 3.7185 3.69183 3.75542 3.69183 3.76977V12.2302C3.69183 12.2302 3.76362 12.3082 3.76977 12.3082H12.2302C12.2302 12.3082 12.3082 12.2364 12.3082 12.2302V3.76977C12.3082 3.76977 12.2364 3.69183 12.2302 3.69183H3.76977Z" fill="#EEEEEE"/>
    <path d="M3.76977 0H4.84656C4.84656 0 4.9245 0.0717867 4.9245 0.0779397V1.77003C4.9245 1.77003 4.85271 1.84797 4.84656 1.84797H3.76977C3.76977 1.84797 3.69183 1.77618 3.69183 1.77003V0.0779397C3.69183 0.0635826 3.75132 0.0266632 3.76977 0Z" fill="#EEEEEE"/>
    <path d="M6.231 0H7.30778C7.30778 0 7.38572 0.0717867 7.38572 0.0779397V1.77003C7.38572 1.77003 7.31394 1.84797 7.30778 1.84797H6.231C6.231 1.84797 6.15306 1.77618 6.15306 1.77003V0.0779397C6.15306 0.0635826 6.21254 0.0266632 6.231 0Z" fill="#EEEEEE"/>
    <path d="M8.69222 0H9.76901C9.76901 0 9.84694 0.0717867 9.84694 0.0779397V1.77003C9.84694 1.77003 9.77516 1.84797 9.76901 1.84797H8.69222C8.69222 1.84797 8.61428 1.77618 8.61428 1.77003V0.0779397C8.61428 0.0635826 8.67376 0.0266632 8.69222 0Z" fill="#EEEEEE"/>
    <path d="M11.1534 0H12.2302C12.2302 0 12.3082 0.0717867 12.3082 0.0779397V1.77003C12.3082 1.77003 12.2364 1.84797 12.2302 1.84797H11.1534C11.1534 1.84797 11.0755 1.77618 11.0755 1.77003V0.0779397C11.0755 0.0635826 11.135 0.0266632 11.1534 0Z" fill="#EEEEEE"/>
    <path d="M0.0779382 3.69183H1.77003C1.77003 3.69183 1.84797 3.76362 1.84797 3.76977V4.84656C1.84797 4.84656 1.77618 4.92449 1.77003 4.92449H0.0779382C0.0779382 4.92449 0 4.85271 0 4.84656V3.76977C0 3.75542 0.059479 3.7185 0.0779382 3.69183Z" fill="#EEEEEE"/>
    <path d="M14.23 3.69183H15.9221C15.9221 3.69183 16 3.76362 16 3.76977V4.84656C16 4.84656 15.9282 4.92449 15.9221 4.92449H14.23C14.23 4.92449 14.152 4.85271 14.152 4.84656V3.76977C14.152 3.75542 14.2115 3.7185 14.23 3.69183Z" fill="#EEEEEE"/>
    <path d="M0.0779382 6.15306H1.77003C1.77003 6.15306 1.84797 6.22484 1.84797 6.231V7.30778C1.84797 7.30778 1.77618 7.38572 1.77003 7.38572H0.0779382C0.0779382 7.38572 0 7.31393 0 7.30778V6.231C0 6.21664 0.059479 6.17972 0.0779382 6.15306Z" fill="#EEEEEE"/>
    <path d="M14.23 6.15306H15.9221C15.9221 6.15306 16 6.22484 16 6.231V7.30778C16 7.30778 15.9282 7.38572 15.9221 7.38572H14.23C14.23 7.38572 14.152 7.31393 14.152 7.30778V6.231C14.152 6.21664 14.2115 6.17972 14.23 6.15306Z" fill="#EEEEEE"/>
    <path d="M0.0779382 8.61428H1.77003C1.77003 8.61428 1.84797 8.68607 1.84797 8.69222V9.769C1.84797 9.769 1.77618 9.84694 1.77003 9.84694H0.0779382C0.0779382 9.84694 0 9.77516 0 9.769V8.69222C0 8.67786 0.059479 8.64094 0.0779382 8.61428Z" fill="#EEEEEE"/>
    <path d="M14.23 8.61428H15.9221C15.9221 8.61428 16 8.68607 16 8.69222V9.769C16 9.769 15.9282 9.84694 15.9221 9.84694H14.23C14.23 9.84694 14.152 9.77516 14.152 9.769V8.69222C14.152 8.67786 14.2115 8.64094 14.23 8.61428Z" fill="#EEEEEE"/>
    <path d="M0.0779382 11.0755H1.77003C1.77003 11.0755 1.84797 11.1473 1.84797 11.1534V12.2302C1.84797 12.2302 1.77618 12.3082 1.77003 12.3082H0.0779382C0.0779382 12.3082 0 12.2364 0 12.2302V11.1534C0 11.1391 0.059479 11.1022 0.0779382 11.0755Z" fill="#EEEEEE"/>
    <path d="M14.23 11.0755H15.9221C15.9221 11.0755 16 11.1473 16 11.1534V12.2302C16 12.2302 15.9282 12.3082 15.9221 12.3082H14.23C14.23 12.3082 14.152 12.2364 14.152 12.2302V11.1534C14.152 11.1391 14.2115 11.1022 14.23 11.0755Z" fill="#EEEEEE"/>
    <path d="M3.76977 14.152H4.84656C4.84656 14.152 4.9245 14.2238 4.9245 14.23V15.9221C4.9245 15.9221 4.85271 16 4.84656 16H3.76977C3.76977 16 3.69183 15.9282 3.69183 15.9221V14.23C3.69183 14.2156 3.75132 14.1787 3.76977 14.152Z" fill="#EEEEEE"/>
    <path d="M6.231 14.152H7.30778C7.30778 14.152 7.38572 14.2238 7.38572 14.23V15.9221C7.38572 15.9221 7.31394 16 7.30778 16H6.231C6.231 16 6.15306 15.9282 6.15306 15.9221V14.23C6.15306 14.2156 6.21254 14.1787 6.231 14.152Z" fill="#EEEEEE"/>
    <path d="M8.69222 14.152H9.76901C9.76901 14.152 9.84694 14.2238 9.84694 14.23V15.9221C9.84694 15.9221 9.77516 16 9.76901 16H8.69222C8.69222 16 8.61428 15.9282 8.61428 15.9221V14.23C8.61428 14.2156 8.67376 14.1787 8.69222 14.152Z" fill="#EEEEEE"/>
    <path d="M11.1534 14.152H12.2302C12.2302 14.152 12.3082 14.2238 12.3082 14.23V15.9221C12.3082 15.9221 12.2364 16 12.2302 16H11.1534C11.1534 16 11.0755 15.9282 11.0755 15.9221V14.23C11.0755 14.2156 11.135 14.1787 11.1534 14.152Z" fill="#EEEEEE"/>
</svg>
