<svg width="17" height="12" viewBox="0 0 17 12" fill="none" xmlns="http://www.w3.org/2000/svg">
  <path d="M16.9973 1.94442C12.9231 4.11507 8.93489 6.43806 4.89347 8.66684C4.63947 8.87929 4.93649 9.35431 4.9119 9.73713C4.78286 11.7474 2.24698 12.7696 0.739387 11.3165C-1.19837 9.44851 1.03025 6.33383 3.46166 7.45023C3.65421 7.53842 3.89387 7.78695 4.10485 7.75087C4.89347 7.346 5.65136 6.89103 6.42155 6.45609C6.55879 6.37793 7.0463 6.19353 7.06474 6.07929C7.11185 5.81071 6.82713 5.82274 6.65711 5.72452C5.79885 5.21944 4.9242 4.74442 4.05364 4.25938C3.9205 4.23132 3.63782 4.47184 3.48829 4.53798C0.952417 5.6644 -1.17583 2.53969 0.737339 0.691729C2.43748 -0.947789 5.25808 0.555436 4.85455 2.81629C4.82178 2.99868 4.6661 3.08887 4.83816 3.29531L8.15447 5.16132C8.48016 5.31164 8.46786 5.32567 8.78946 5.16132C10.8071 4.12509 12.7223 2.86038 14.7318 1.80612L16.8703 1.79409L16.9993 1.94241L16.9973 1.94442ZM2.18348 1.20483C0.690226 1.45537 0.997481 3.87255 2.7222 3.58594C4.18474 3.34342 3.92664 0.912202 2.18348 1.20483ZM2.18348 8.42031C0.690226 8.67085 0.997481 11.088 2.7222 10.8014C4.18474 10.5589 3.92664 8.12768 2.18348 8.42031Z" fill="#EEEEEE"/>
  <path d="M14.7174 10.2122C14.6949 10.2061 14.5228 10.0578 14.4532 10.0197C12.7674 9.13584 11.1307 8.15374 9.46542 7.23376C9.40397 7.17163 9.38758 7.08144 9.46952 7.03133L10.5183 6.5523C11.1594 6.81286 11.7493 7.22575 12.3598 7.56046C12.4335 7.60055 12.5216 7.60255 12.5871 7.63863C14.0599 8.44636 15.504 9.33026 16.9973 10.0899C17.0157 10.132 16.9358 10.2142 16.9215 10.2142H14.7195L14.7174 10.2122Z" fill="#EEEEEE"/>
</svg>
