<svg width="12" height="14" viewBox="0 0 12 14" fill="none" xmlns="http://www.w3.org/2000/svg">
<g class="jp-icon3">
  <path d="M8.00085 0.278666C8.22923 0.45313 8.4458 0.911339 8.45761 1.19508C8.46549 1.3753 8.40642 1.55168 8.40839 1.68013C8.41233 1.86993 8.64859 1.74723 8.77262 1.74532C9.64677 1.72231 10.8222 1.6763 11.6727 1.74532C11.8006 1.75682 11.9286 1.74915 11.968 1.88719C12.0113 2.04056 12.0172 2.89563 11.9444 3.00683C11.8341 3.17746 11.5191 3.01833 11.4305 3.04134C11.2907 3.07776 11.399 3.2829 11.4029 3.3941C11.4876 6.48461 11.3872 9.62114 11.338 12.7059C11.0879 13.2791 10.6745 13.6817 10.0858 13.9252C7.3787 14.0249 4.62237 14.0249 1.91329 13.9252C1.32462 13.6817 0.911167 13.2791 0.661128 12.7059C0.613877 9.62305 0.513468 6.48461 0.596158 3.3941C0.600095 3.2829 0.70838 3.07776 0.568594 3.04134C0.479998 3.01833 0.166957 3.17554 0.0547353 3.00683C-0.0161419 2.89755 -0.0161419 1.9888 0.0429224 1.8546C0.088205 1.74915 0.22799 1.7549 0.326431 1.74532C1.17893 1.6763 2.35234 1.72231 3.22649 1.74532C3.35052 1.74915 3.58678 1.86993 3.59072 1.68013C3.59268 1.5536 3.53756 1.37146 3.5415 1.19508C3.54346 1.10498 3.56709 0.851906 3.59465 0.78097C3.61434 0.729206 3.69309 0.725371 3.7305 0.664021C3.76791 0.606506 3.7561 0.527901 3.80335 0.470385C3.92148 0.326596 4.07504 0.272914 4.22861 0.190475C4.26208 0.17322 4.26208 0.09845 4.31918 0.0773609C4.59481 -0.022333 6.94163 -0.0108298 7.34917 0.0294312C7.50274 0.0447687 7.88272 0.192392 7.99888 0.280583L8.00085 0.278666ZM4.95116 1.3197C4.85469 1.34654 4.85469 1.76449 4.95116 1.79133H7.04991C7.14638 1.76449 7.14638 1.34654 7.04991 1.3197H4.95116ZM9.84759 12.472C9.94603 12.3704 10.0543 12.3474 10.0287 12.1461L10.0523 3.08352L1.97236 3.05859C1.91132 3.09885 1.93298 3.1372 1.93495 3.18896C2.01567 6.24688 1.91723 9.33356 2.01961 12.3857C2.14561 12.4375 2.18499 12.5257 2.26571 12.6215H9.73143C9.78853 12.5851 9.80231 12.5161 9.84562 12.4701L9.84759 12.472Z" fill="#EEEEEE"/>
  <path d="M4.26996 4.67478C4.32508 4.72847 4.32705 4.84925 4.33296 4.92402C4.49834 6.83162 4.20892 8.96737 4.32705 10.8999C4.33493 11.2182 3.42337 11.1453 3.1812 11.1127C2.9666 11.084 2.97251 10.9977 2.95479 10.8079C2.78941 8.90027 3.07883 6.76452 2.9607 4.83199C2.98235 4.67862 3.02173 4.64028 3.17923 4.61919C3.34461 4.59618 4.18136 4.58851 4.26996 4.67478Z" fill="#EEEEEE"/>
  <path d="M6.62662 4.67478C6.68175 4.72847 6.68372 4.84925 6.68962 4.92402C6.855 6.83162 6.56559 8.96737 6.68372 10.8999C6.69159 11.2182 5.78003 11.1453 5.53787 11.1127C5.32327 11.084 5.32917 10.9977 5.31146 10.8079C5.14608 8.90027 5.43549 6.76452 5.31736 4.83199C5.33902 4.67862 5.37839 4.64028 5.5359 4.61919C5.70128 4.59618 6.53802 4.58851 6.62662 4.67478Z" fill="#EEEEEE"/>
  <path d="M8.98328 4.67478C9.03841 4.72847 9.04038 4.84925 9.04628 4.92402C9.21167 6.83162 8.92225 8.96737 9.04038 10.8999C9.04825 11.2182 8.1367 11.1453 7.89453 11.1127C7.67993 11.084 7.68584 10.9977 7.66812 10.8079C7.50274 8.90027 7.79215 6.76452 7.67403 4.83199C7.69568 4.67862 7.73506 4.64028 7.89256 4.61919C8.05794 4.59618 8.89469 4.58851 8.98328 4.67478Z" fill="#EEEEEE"/>
</g>
</svg>
