<svg width="22" height="14" viewBox="0 0 22 14" fill="none" xmlns="http://www.w3.org/2000/svg">
    <path d="M0.0928084 0L11 6.97156L10.916 7.16406L0.141422 14L0.0110486 13.9059L0 0.18375L0.0928084 0ZM1.32804 2.43031V11.5631C1.32804 11.6178 1.48935 11.6856 1.54902 11.6178L8.54058 7.16406L8.62455 6.97156L1.54902 2.37562C1.48272 2.31656 1.35014 2.35375 1.32804 2.43031Z" fill="#EEEEEE"/>
    <path d="M11.0928 0L22 6.97156L21.916 7.16406L11.1414 14L11.011 13.9059L11 0.18375L11.0928 0ZM12.328 2.43031V11.5631C12.328 11.6178 12.4894 11.6856 12.549 11.6178L19.5406 7.16406L19.6245 6.97156L12.549 2.37562C12.4827 2.31656 12.3501 2.35375 12.328 2.43031Z" fill="#EEEEEE"/>
</svg>
