<svg width="19" height="12" viewBox="0 0 19 12" fill="none" xmlns="http://www.w3.org/2000/svg">
    <path d="M0.0859421 0H18.9141C18.9141 0 19 0.0777645 19 0.0844299V11.9156C19 11.9156 18.9208 12 18.9141 12H10.2633C10.1208 12 10.2135 11.2557 10.1367 11.0691C9.91501 10.5336 9.08725 10.5336 8.86561 11.0691C8.78872 11.2557 8.88144 12 8.73896 12H0.0859421C0.0859421 12 0 11.9222 0 11.9156V0.0844299C0 0.0688772 0.0655874 0.0288835 0.0859421 0ZM1.44292 1.33309C1.42483 1.36197 1.35698 1.40196 1.35698 1.41752V7.24977C1.35698 7.24977 1.43614 7.3342 1.44292 7.3342H17.5571C17.5571 7.3342 17.643 7.25644 17.643 7.24977V1.41752C17.643 1.41752 17.5639 1.33309 17.5571 1.33309H1.44292ZM1.44292 8.66506C1.42483 8.69395 1.35698 8.73394 1.35698 8.74949V10.5825C1.35698 10.5825 1.43614 10.6669 1.44292 10.6669H7.66242C8.14415 10.0159 8.59422 9.31605 9.52827 9.32939C10.4623 9.34272 10.8672 10.0359 11.3376 10.6669H17.5571C17.5571 10.6669 17.643 10.5892 17.643 10.5825V8.74949C17.643 8.74949 17.5639 8.66506 17.5571 8.66506H1.44292Z" fill="#EEEEEE"/>
    <path d="M2.7999 2.66617H6.70123C6.70123 2.66617 6.78717 2.74394 6.78717 2.7506V5.91668C6.78717 5.91668 6.70801 6.00111 6.70123 6.00111H2.7999C2.7999 6.00111 2.71396 5.92335 2.71396 5.91668V2.7506C2.71396 2.73505 2.77955 2.69506 2.7999 2.66617ZM4.15689 3.99926C4.03023 3.99926 4.03023 4.6658 4.15689 4.6658H5.34424C5.4709 4.6658 5.4709 3.99926 5.34424 3.99926H4.15689Z" fill="#EEEEEE"/>
    <path d="M7.54934 2.66617H11.4507C11.4507 2.66617 11.5366 2.74394 11.5366 2.7506V5.91668C11.5366 5.91668 11.4574 6.00111 11.4507 6.00111H7.54934C7.54934 6.00111 7.4634 5.92335 7.4634 5.91668V2.7506C7.4634 2.73505 7.52899 2.69506 7.54934 2.66617ZM8.90632 3.99926C8.77967 3.99926 8.77967 4.6658 8.90632 4.6658H10.0937C10.2203 4.6658 10.2203 3.99926 10.0937 3.99926H8.90632Z" fill="#EEEEEE"/>
    <path d="M12.2988 2.66617H16.2001C16.2001 2.66617 16.286 2.74394 16.286 2.7506V5.91668C16.286 5.91668 16.2069 6.00111 16.2001 6.00111H12.2988C12.2988 6.00111 12.2128 5.92335 12.2128 5.91668V2.7506C12.2128 2.73505 12.2784 2.69506 12.2988 2.66617ZM13.6558 3.99926C13.5291 3.99926 13.5291 4.6658 13.6558 4.6658H14.8431C14.9698 4.6658 14.9698 3.99926 14.8431 3.99926H13.6558Z" fill="#EEEEEE"/>
</svg>
