<svg width="12" height="16" viewBox="0 0 12 16" fill="none" xmlns="http://www.w3.org/2000/svg">
  <path d="M3.97953 1.61441C4.35584 1.08875 4.7067 0.511262 5.43204 0.500156C6.15738 0.489051 6.54642 1.07209 6.93181 1.61441H10.8403C10.8403 1.61441 10.9094 1.67919 10.9094 1.68474V6.54341C10.9094 6.54341 10.973 6.61374 10.9785 6.61374H11.9329C11.9329 6.61374 12.002 6.67852 12.002 6.68407V15.4297C12.002 15.4297 11.9383 15.5 11.9329 15.5H4.43401C4.43401 15.5 4.36493 15.4352 4.36493 15.4297V14.4579C4.36493 14.4579 4.3013 14.3876 4.29585 14.3876H0.0710336C0.0710336 14.3876 0.00195312 14.3228 0.00195312 14.3173V1.68289C0.00195312 1.68289 0.0655798 1.61256 0.0710336 1.61256H3.97953V1.61441ZM3.34145 2.72496C3.34145 2.72496 3.27237 2.78974 3.27237 2.7953V3.76703C3.27237 3.76703 3.33599 3.83736 3.34145 3.83736H7.56808C7.56808 3.83736 7.63716 3.77258 7.63716 3.76703V2.7953C7.63716 2.7953 7.57353 2.72496 7.56808 2.72496H6.06831C5.95378 2.72496 6.02831 2.1049 5.9665 1.94943C5.78835 1.50335 5.12118 1.50335 4.94484 1.94943C4.87212 2.13267 4.97029 2.68424 4.84304 2.72496H3.34145ZM1.16178 2.72496C1.14723 2.74902 1.0927 2.78234 1.0927 2.7953V13.2067C1.0927 13.2067 1.15632 13.277 1.16178 13.277H4.29767C4.29767 13.277 4.36675 13.2123 4.36675 13.2067V6.68222C4.36675 6.68222 4.43037 6.61189 4.43583 6.61189H9.7532C9.7532 6.61189 9.82228 6.54711 9.82228 6.54155V2.79344C9.82228 2.79344 9.75866 2.72311 9.7532 2.72311H8.7988C8.7988 2.72311 8.72972 2.78789 8.72972 2.79344V4.87573C8.72972 4.87573 8.66609 4.94606 8.66064 4.94606H2.25252C2.25252 4.94606 2.18344 4.88128 2.18344 4.87573V2.79344C2.18344 2.79344 2.11981 2.72311 2.11436 2.72311H1.15996L1.16178 2.72496ZM5.52475 7.72244C5.51021 7.7465 5.45567 7.77982 5.45567 7.79277V14.3173C5.45567 14.3173 5.5193 14.3876 5.52475 14.3876H10.8421C10.8421 14.3876 10.9112 14.3228 10.9112 14.3173V7.79277C10.9112 7.79277 10.8476 7.72244 10.8421 7.72244H5.52475Z" fill="#EEEEEE"/>
</svg>
