<svg width="16" height="14" viewBox="0 0 16 14" fill="none" xmlns="http://www.w3.org/2000/svg">
  <path d="M0.0176627 10.4674C0.018493 9.7635 0.0259662 9.05958 0.0151716 8.35649C0.0101895 8.03683 0.15301 7.90515 0.461902 7.90598C1.88679 7.90846 3.31251 7.90349 4.73739 7.90929C5.23727 7.91095 5.45897 8.3275 5.74212 8.63391C5.86833 8.77056 5.70891 8.88567 5.61591 8.97925C5.2082 9.39166 4.80714 9.81236 4.38117 10.2065C4.13871 10.431 4.13373 10.5759 4.39695 10.7912C6.96357 12.8889 10.6329 11.9738 12.0279 9.05378C12.1973 8.69934 12.3567 8.59748 12.7163 8.76145C13.055 8.91631 13.4079 9.0455 13.765 9.15233C14.083 9.24756 14.1428 9.39829 14.0108 9.6989C13.1945 11.5514 11.8502 12.879 9.94537 13.5481C7.44351 14.4276 5.11686 14.0268 3.06506 12.3158C2.73209 12.0384 2.53197 11.9912 2.23305 12.344C1.88596 12.7531 1.47161 13.1059 1.09795 13.4934C0.912784 13.6856 0.778267 13.6673 0.57566 13.4976C0.165466 13.1539 -0.0412924 12.7647 0.00686807 12.2073C0.0566893 11.6301 0.0176627 11.0471 0.0176627 10.4674Z" fill="#EEEEEE"/>
  <path d="M12.4763 6.01534C11.7846 6.01534 11.0921 5.99381 10.4012 6.02196C9.87646 6.04349 9.66223 5.65013 9.3824 5.34537C9.25868 5.21039 9.40399 5.09113 9.49948 4.99507C9.88892 4.60253 10.2676 4.1984 10.6769 3.82822C10.9709 3.56156 10.9352 3.38103 10.6454 3.13921C8.82856 1.6262 5.919 1.72309 4.20847 3.35867C3.71275 3.83236 3.29674 4.3632 3.0302 4.99424C2.90647 5.28658 2.76282 5.37022 2.46223 5.2402C2.09439 5.0812 1.71409 4.94952 1.33295 4.82696C0.999152 4.7193 0.958464 4.54953 1.0963 4.2365C2.42985 1.2171 5.57606 -0.464022 8.82689 0.112363C10.1164 0.340929 11.2349 0.914001 12.1981 1.78603C12.4182 1.98561 12.5485 1.96988 12.7404 1.76781C13.1298 1.35706 13.5508 0.975284 13.9361 0.560386C14.1611 0.318569 14.3105 0.294553 14.5729 0.538026C14.935 0.874251 15.0894 1.23035 15.0761 1.73137C15.0421 3.00008 15.0554 4.27045 15.0703 5.53999C15.0745 5.89609 14.9599 6.03356 14.5929 6.02196C13.8879 5.9996 13.1813 6.01534 12.4763 6.01534Z" fill="#EEEEEE"/>
</svg>
