<svg width="12" height="14" viewBox="0 0 12 14" fill="none" xmlns="http://www.w3.org/2000/svg">
    <path d="M6 0.5C3.24228 0.5 0.939607 2.21175 0 4.63021L0.994382 5.03646C1.7802 3.01367 3.6868 1.58333 6 1.58333C7.7486 1.58333 9.30758 2.4445 10.2809 3.75H8.1573V4.83333H11.9326V1.04167H10.8539V2.71745C9.67205 1.35693 7.92556 0.5 6 0.5ZM11.0056 8.96354C10.2198 10.9863 8.3132 12.4167 6 12.4167C4.23244 12.4167 2.67978 11.5428 1.70225 10.25H3.8427V9.16667H0.0674157V12.9583H1.14607V11.2826C2.32584 12.6261 4.05548 13.5 6 13.5C8.75772 13.5 11.0604 11.7882 12 9.36979L11.0056 8.96354Z" fill="#EEEEEE"/>
</svg>
