<svg width="14" height="14" viewBox="0 0 14 14" fill="none" xmlns="http://www.w3.org/2000/svg">
  <path d="M11.0562 0C12.0636 0.956522 13.0435 1.93637 14 2.9438V13.9194C14 13.9194 13.9258 14 13.9194 14H0.0805917C0.0805917 14 0 13.9258 0 13.9194V0.0805949C0 0.0805949 0.074229 0 0.0805917 0H11.0562ZM10.8187 1.72216V5.00954C10.8187 5.00954 10.7444 5.09014 10.7381 5.09014H3.26193C3.26193 5.09014 3.18134 5.01591 3.18134 5.00954V1.35101C3.18134 1.35101 3.1071 1.27041 3.10074 1.27041H1.35101C1.35101 1.27041 1.27041 1.34464 1.27041 1.35101V12.6448C1.27041 12.6448 1.34464 12.7253 1.35101 12.7253H2.46447C2.46447 12.7253 2.54507 12.6511 2.54507 12.6448V7.07741C2.54507 7.07741 2.6193 6.99682 2.62566 6.99682H11.3743C11.3743 6.99682 11.4549 7.07105 11.4549 7.07741V12.6448C11.4549 12.6448 11.5292 12.7253 11.5355 12.7253H12.649C12.649 12.7253 12.7296 12.6511 12.7296 12.6448V3.4719L10.9799 1.66702C10.9311 1.60127 10.8314 1.68187 10.8208 1.72216H10.8187ZM4.53659 1.27253C4.51962 1.30011 4.45599 1.33828 4.45599 1.35313V3.73913C4.45599 3.73913 4.53022 3.81972 4.53659 3.81972H9.46766C9.46766 3.81972 9.54825 3.74549 9.54825 3.73913V1.35313C9.54825 1.35313 9.47402 1.27253 9.46766 1.27253H8.35419C8.35419 1.27253 8.27359 1.34677 8.27359 1.35313V2.4666C8.27359 2.4666 8.19936 2.54719 8.193 2.54719H7.07953C7.07953 2.54719 6.99894 2.47296 6.99894 2.4666V1.35313C6.99894 1.35313 6.9247 1.27253 6.91834 1.27253H4.53234H4.53659ZM3.90032 8.27147C3.88335 8.29905 3.81972 8.33722 3.81972 8.35207V12.6469C3.81972 12.6469 3.89396 12.7275 3.90032 12.7275H10.1039C10.1039 12.7275 10.1845 12.6532 10.1845 12.6469V8.35207C10.1845 8.35207 10.1103 8.27147 10.1039 8.27147H3.90032Z" fill="#EEEEEE"/>
</svg>
