<svg width="14" height="14" viewBox="0 0 14 14" fill="none" xmlns="http://www.w3.org/2000/svg">
  <path d="M8.5565 0C5.5562 0 3.113 2.4432 3.113 5.4435C3.113 6.74696 3.57017 7.94198 4.33779 8.87971L0 13.2175L0.782503 14L5.12029 9.66221C6.05802 10.4298 7.25304 10.887 8.5565 10.887C11.5568 10.887 14 8.4438 14 5.4435C14 2.4432 11.5568 0 8.5565 0ZM8.5565 1.0887C10.9678 1.0887 12.9113 3.0322 12.9113 5.4435C12.9113 7.8548 10.9678 9.7983 8.5565 9.7983C6.1452 9.7983 4.2017 7.8548 4.2017 5.4435C4.2017 3.0322 6.1452 1.0887 8.5565 1.0887Z" fill="#EEEEEE"/>
</svg>
