<svg width="14" height="14" viewBox="0 0 14 14" fill="none" xmlns="http://www.w3.org/2000/svg">
    <path d="M4.66266 1.58157C4.17538 1.93411 3.64132 2.17563 3.17548 2.57882C-1.84936 6.92035 3.19693 14.9431 9.23921 12.4364C13.9561 10.4789 14.0711 3.77668 9.42437 1.70817C9.39708 1.6887 9.34251 1.60494 9.34251 1.58352V0.51031C9.34251 0.356438 9.84343 0.601854 9.93894 0.644704C14.5194 2.7697 15.4452 8.97717 11.584 12.2942C7.83389 15.5158 2.04109 13.9751 0.401881 9.34529C-0.804626 5.93673 0.791705 2.18732 4.03505 0.660286C4.10521 0.627175 4.51453 0.434348 4.54182 0.434348C4.58275 0.434348 4.66266 0.479146 4.66266 0.508362V1.58157Z" fill="#EEEEEE"/>
    <path d="M6.49094 0H7.51423C7.51423 0 7.5883 0.0681712 7.5883 0.0740144V6.93982C7.5883 6.93982 7.52008 7.01384 7.51423 7.01384H6.49094C6.49094 7.01384 6.41687 6.94567 6.41687 6.93982V0.0740144C6.41687 0.0603802 6.4734 0.0253207 6.49094 0Z" fill="#EEEEEE"/>
</svg>
