<svg width="14" height="14" viewBox="0 0 14 14" fill="none" xmlns="http://www.w3.org/2000/svg">
  <path d="M6.69467 0.00806011C11.1645 -0.207364 14.7366 3.92952 13.8695 8.33138C12.6831 14.3535 4.87174 16.0772 1.29463 11.0537C-1.92153 6.53686 1.22049 0.271693 6.69467 0.00806011ZM11.206 2.80824C8.3255 -0.0752097 3.5604 0.746368 1.72096 4.33744C-0.636482 8.93889 3.65106 14.0777 8.60422 12.74C12.9491 11.5665 14.3965 6.0015 11.2063 2.80857L11.206 2.80824Z" fill="#EEEEEE" fill-opacity="0.933333"/>
  <path d="M4.39992 4.32025L9.67088 4.3607L9.65403 9.67686L4.33959 9.66C4.3042 9.61988 4.31162 9.57167 4.30724 9.5238C4.16299 7.92751 4.42081 6.11579 4.30724 4.49657C4.30184 4.42206 4.3224 4.34284 4.40025 4.31991L4.39992 4.32025ZM5.47837 5.39906C5.414 5.41793 5.38502 5.47862 5.38569 5.54233C5.45276 6.47752 5.30211 7.52363 5.38536 8.44499C5.38974 8.49287 5.38266 8.54108 5.41771 8.58119L8.57523 8.59805L8.59208 5.43951L5.47804 5.39906H5.47837Z" fill="#EEEEEE" fill-opacity="0.933333"/>
</svg>
