<svg width="14" height="13" viewBox="0 0 14 13" fill="none" xmlns="http://www.w3.org/2000/svg">
  <g fill="#EEEEEE" fill-opacity="0.933333">
    <path d="M4.16845 1.10281L13.856 1.09653C13.9307 1.10724 13.9697 1.1512 13.9836 1.22582C14.0055 1.34292 14.0055 2.03001 13.9836 2.14711C13.9668 2.23725 13.9122 2.27825 13.8221 2.27899L4.19834 2.27641C4.09846 2.2572 4.08023 2.20659 4.06821 2.11276C4.04889 1.96684 4.04597 1.36065 4.07076 1.22545C4.08206 1.16487 4.10867 1.12276 4.16808 1.10244L4.16845 1.10281Z"/>
    <path d="M4.16845 6.42224L13.856 6.41596C13.9307 6.42667 13.9697 6.47063 13.9836 6.54525C14.0055 6.66235 14.0055 7.34944 13.9836 7.46654C13.9668 7.55668 13.9122 7.59768 13.8221 7.59842L4.19834 7.59583C4.09846 7.57662 4.08023 7.52602 4.06821 7.43219C4.04889 7.28627 4.04597 6.68008 4.07076 6.54488C4.08206 6.4843 4.10867 6.44218 4.16808 6.42187L4.16845 6.42224Z"/>
    <path d="M4.16845 11.7417L13.856 11.7354C13.9307 11.7461 13.9697 11.7901 13.9836 11.8647C14.0055 11.9818 14.0055 12.6689 13.9836 12.786C13.9668 12.8761 13.9122 12.9171 13.8221 12.9178L4.19834 12.9153C4.09846 12.8961 4.08023 12.8454 4.06821 12.7516C4.04889 12.6057 4.04597 11.9995 4.07076 11.8643C4.08206 11.8037 4.10867 11.7616 4.16808 11.7413L4.16845 11.7417Z"/>
    <path d="M0.962219 0.513236C1.76815 0.382098 2.55622 1.24946 2.25878 2.04885C1.97847 2.8017 1.13135 3.11459 0.462841 2.62697C-0.37298 2.01745 0.00137117 0.669495 0.962219 0.513236Z"/>
    <path d="M0.962219 5.83266C1.76815 5.70153 2.55622 6.56889 2.25878 7.36828C1.97847 8.12113 1.13135 8.43401 0.462841 7.9464C-0.37298 7.33688 0.00137117 5.98892 0.962219 5.83266Z"/>
    <path d="M0.962219 11.1521C1.76815 11.021 2.55622 11.8883 2.25878 12.6877C1.97847 13.4406 1.13135 13.7534 0.462841 13.2658C-0.37298 12.6563 0.00137117 11.3083 0.962219 11.1521Z"/>

  </g>
</svg>
