<svg width="12" height="14" viewBox="0 0 12 14" fill="none" xmlns="http://www.w3.org/2000/svg">
  <g fill="#EEEEEE" fill-opacity="0.933333" class="jp-notebook-icon-color jp-icon-selectable">
    <path d="M0.681158 0.000365988L12 0.0442421L11.9821 14L0.617122 13.9817C0.579559 13.9382 0.587431 13.8859 0.58278 13.834C0.494419 12.8344 0.654328 11.7002 0.583138 10.6859C0.583854 10.5956 0.623563 10.5411 0.710851 10.524C0.842499 10.4984 1.42668 10.5024 1.57014 10.5214C1.63095 10.5294 1.67853 10.5353 1.7118 10.596L1.7279 12.7002C1.72754 12.7861 1.77083 12.8501 1.85561 12.8622L10.7282 12.8647C10.8484 12.8644 10.8989 12.7803 10.8896 12.664V1.36161L10.8552 1.21389L1.82592 1.17002L1.74686 1.23547L1.71144 4.01463C1.67853 4.07569 1.63059 4.08117 1.56978 4.08922C1.13656 4.14625 0.585285 4.04424 0.138112 4.08666C0.0647754 4.07605 0.0264974 4.03254 0.0129033 3.95868C-0.00569907 3.85923 -0.00462647 3.09836 0.0189843 3.01645C0.082304 2.79561 0.534486 3.05375 0.583138 2.78867L0.601739 0.0654471L0.6808 0L0.681158 0.000365988Z"/>
    <path d="M3.54307 2.92541L9.09874 2.93601L9.17172 3.08081L9.1524 6.35503L9.07334 6.42048L3.51767 6.40987L3.44469 6.26508C3.52124 5.2574 3.34846 4.10713 3.44433 3.117C3.45292 3.02998 3.44648 2.96015 3.54307 2.92541ZM4.68783 4.09543C4.62916 4.11554 4.60305 4.15722 4.59231 4.21719C4.57407 4.31627 4.58087 5.12578 4.60913 5.18538C4.62379 5.21609 4.65599 5.24132 4.68819 5.25082L7.95434 5.24022C7.9851 5.22157 8.00836 5.19525 8.01837 5.15942C8.04198 5.07678 8.04306 4.31773 8.02445 4.21719C8.01336 4.15722 7.98725 4.11554 7.92894 4.09543H4.68783Z"/>
    <path d="M3.54307 7.60549L9.04401 7.59927C9.11734 7.60987 9.15562 7.65338 9.16922 7.72724C9.19068 7.84315 9.19068 8.52322 9.16922 8.63912C9.15276 8.72834 9.0991 8.76892 9.01074 8.76965L3.5724 8.76709C3.47438 8.74808 3.45649 8.69799 3.44469 8.60512C3.42573 8.4607 3.42287 7.8607 3.44719 7.72688C3.45828 7.66691 3.4844 7.62523 3.54271 7.60512L3.54307 7.60549Z"/>
    <path d="M3.54307 9.94552L9.04401 9.93931C9.11734 9.94991 9.15562 9.99342 9.16922 10.0673C9.19068 10.1832 9.19068 10.8633 9.16922 10.9792C9.15276 11.0684 9.0991 11.109 9.01074 11.1097L3.5724 11.1071C3.47438 11.0881 3.45649 11.038 3.44469 10.9452C3.42573 10.8007 3.42287 10.2007 3.44719 10.0669C3.45828 10.0069 3.4844 9.96527 3.54271 9.94516L3.54307 9.94552Z"/>
    <path d="M0.681158 4.68044C0.772382 4.65302 1.44994 4.65558 1.56978 4.6713C1.63059 4.67934 1.67817 4.68519 1.71144 4.74589L1.73076 6.85009C1.73076 6.90713 1.71037 6.96856 1.65778 6.99488C1.59089 7.02815 0.317338 7.034 0.171381 7.01462C0.113785 7.00695 0.0586927 7.00037 0.0297159 6.94004C0.000739053 6.87971 -0.0042685 6.02377 0.0193422 5.94186C0.0780113 5.73711 0.486906 5.93857 0.566682 5.77002C0.646457 5.60146 0.544145 5.02742 0.585285 4.80183C0.596017 4.74369 0.622847 4.69762 0.6808 4.68007L0.681158 4.68044Z"/>
    <path d="M0.681158 7.60548C0.772382 7.57806 1.44994 7.58062 1.56978 7.59634C1.63059 7.60439 1.67817 7.61024 1.71144 7.67093L1.73076 9.77514C1.73076 9.83217 1.71037 9.8936 1.65778 9.91993C1.59089 9.9532 0.317338 9.95905 0.171381 9.93967C0.113785 9.93199 0.0586927 9.92541 0.0297159 9.86508C0.000739053 9.80475 -0.0042685 8.94881 0.0193422 8.86691C0.0780113 8.66216 0.486906 8.86362 0.566682 8.69506C0.646457 8.52651 0.544145 7.95247 0.585285 7.72687C0.596017 7.66874 0.622847 7.62267 0.6808 7.60512L0.681158 7.60548Z"/>
  </g>
</svg>
